{"title":"Aram Thampuran Malayalam","uid":6044863,"size":412788622,"categoryP":"video","categoryS":"movies","magnet":"?xt=urn:btih:3634336a8ae7c742fa60a477ce86ec1913382b4c&amp;dn=Aram+Thampuran+Malayalam&amp;tr=udp%3A%2F%2Ftracker.openbittorrent.com%3A80&amp;tr=udp%3A%2F%2Fopen.demonii.com%3A1337&amp;tr=udp%3A%2F%2Ftracker.coppersurfer.tk%3A6969&amp;tr=udp%3A%2F%2Fexodus.desync.com%3A6969","seeders":0,"leechers":1,"uploader":"cijob","files":1,"time":1292516543,"description":"General\nComplete name                    : Aram Thampuran.wmv\nFormat                           : Windows Media\nFile size                        : 394 MiB\nDuration                         : 2h 36mn\nOverall bit rate mode            : Constant\nOverall bit rate                 : 352 Kbps\nMaximum Overall bit rate         : 365 Kbps\nEncoded date                     : UTC 2010-12-16 13:44:34.828\n\nVideo\nID                               : 2\nFormat                           : WMV1\nCodec ID                         : WMV1\nCodec ID/Info                    : Windows Media Video 7\nDescription of the codec         : Windows Media Video V7\nDuration                         : 2h 36mn\nBit rate mode                    : Constant\nBit rate                         : 314 Kbps\nWidth                            : 320 pixels\nHeight                           : 240 pixels\nDisplay aspect ratio             : 4:3\nFrame rate                       : 30.000 fps\nBit depth                        : 8 bits\nBits/(Pixel*Frame)               : 0.136\nStream size                      : 351 MiB (89%)\nLanguage                         : English (US)\n\nAudio\nID                               : 1\nFormat                           : WMA\nFormat version                   : Version 2\nCodec ID                         : 161\nCodec ID/Info                    : Windows Media Audio\nDescription of the codec         : Windows Media Audio 9.2 -  32 kbps, 32 kHz, stereo (A/V) 1-pass CBR\nDuration                         : 2h 36mn\nBit rate mode                    : Constant\nBit rate                         : 32.0 Kbps\nChannel(s)                       : 2 channels\nSampling rate                    : 32.0 KHz\nBit depth                        : 16 bits\nStream size                      : 35.7 MiB (9%)\nLanguage                         : English (US)\n\n","torrent":{"xt":"urn:btih:3634336a8ae7c742fa60a477ce86ec1913382b4c","amp;dn":"Aram+Thampuran+Malayalam","amp;tr":["udp%3A%2F%2Ftracker.openbittorrent.com%3A80","udp%3A%2F%2Fopen.demonii.com%3A1337","udp%3A%2F%2Ftracker.coppersurfer.tk%3A6969","udp%3A%2F%2Fexodus.desync.com%3A6969"],"infoHash":"3634336a8ae7c742fa60a477ce86ec1913382b4c","infoHashBuffer":{"type":"Buffer","data":[54,52,51,106,138,231,199,66,250,96,164,119,206,134,236,25,19,56,43,76]},"announce":[],"urlList":[]}}